<mxfile host="app.diagrams.net" modified="2022-09-10T11:15:50.829Z" agent="5.0 (Windows NT 10.0; Win64; x64) AppleWebKit/537.36 (KHTML, like Gecko) Chrome/105.0.0.0 Safari/537.36" etag="4zVHHM75pe2-DXCgRcHN" version="20.3.0" type="github">
  <diagram name="Page-1" id="80d4a630-b321-0f5e-ff81-c5a36ef4752d">
    <mxGraphModel dx="2632" dy="914" grid="1" gridSize="10" guides="1" tooltips="1" connect="1" arrows="1" fold="1" page="1" pageScale="1" pageWidth="1100" pageHeight="850" background="none" math="0" shadow="0">
      <root>
        <mxCell id="0" />
        <mxCell id="1" parent="0" />
        <mxCell id="GZACVESqMo_zAuzx1Ram-51" style="edgeStyle=orthogonalEdgeStyle;rounded=0;orthogonalLoop=1;jettySize=auto;html=1;fontSize=80;strokeWidth=4;strokeColor=#67AB9F;" edge="1" parent="1" source="5c82df7aa0dc6260-14" target="GZACVESqMo_zAuzx1Ram-33">
          <mxGeometry relative="1" as="geometry" />
        </mxCell>
        <mxCell id="5c82df7aa0dc6260-14" value="Mobile Network" style="ellipse;whiteSpace=wrap;html=1;rounded=1;shadow=0;comic=0;labelBackgroundColor=none;strokeColor=#6881B3;strokeWidth=2;fillColor=#CCFFCC;fontFamily=Helvetica;fontSize=22;fontColor=#000000;verticalAlign=middle;gradientColor=none;gradientDirection=north;spacingBottom=17;" parent="1" vertex="1">
          <mxGeometry x="-1050" y="117" width="970" height="470" as="geometry" />
        </mxCell>
        <mxCell id="5c82df7aa0dc6260-1" value="" style="fontColor=#0066CC;verticalAlign=top;verticalLabelPosition=bottom;labelPosition=center;align=center;html=1;fillColor=#FFFFFF;strokeColor=#000000;gradientColor=none;gradientDirection=north;strokeWidth=2;shape=mxgraph.networks.radio_tower;rounded=1;shadow=0;comic=0;labelBackgroundColor=none;" parent="1" vertex="1">
          <mxGeometry x="-322" y="235" width="55" height="100" as="geometry" />
        </mxCell>
        <mxCell id="5c82df7aa0dc6260-2" value="" style="fontColor=#0066CC;verticalAlign=top;verticalLabelPosition=bottom;labelPosition=center;align=center;html=1;fillColor=#FFFFFF;strokeColor=#000000;gradientColor=none;gradientDirection=north;strokeWidth=2;shape=mxgraph.networks.radio_tower;rounded=1;shadow=0;comic=0;labelBackgroundColor=none;" parent="1" vertex="1">
          <mxGeometry x="-478" y="119" width="55" height="100" as="geometry" />
        </mxCell>
        <mxCell id="5c82df7aa0dc6260-3" value="" style="fontColor=#0066CC;verticalAlign=top;verticalLabelPosition=bottom;labelPosition=center;align=center;html=1;fillColor=#FFFFFF;strokeColor=#000000;gradientColor=none;gradientDirection=north;strokeWidth=2;shape=mxgraph.networks.radio_tower;rounded=1;shadow=0;comic=0;labelBackgroundColor=none;" parent="1" vertex="1">
          <mxGeometry x="-910" y="251" width="55" height="100" as="geometry" />
        </mxCell>
        <mxCell id="5c82df7aa0dc6260-4" value="" style="fontColor=#0066CC;verticalAlign=top;verticalLabelPosition=bottom;labelPosition=center;align=center;html=1;fillColor=#FFFFFF;strokeColor=#000000;gradientColor=none;gradientDirection=north;strokeWidth=2;shape=mxgraph.networks.radio_tower;rounded=1;shadow=0;comic=0;labelBackgroundColor=none;" parent="1" vertex="1">
          <mxGeometry x="-630" y="376" width="55" height="100" as="geometry" />
        </mxCell>
        <mxCell id="5c82df7aa0dc6260-64" value="" style="shape=image;html=1;verticalAlign=top;verticalLabelPosition=bottom;labelBackgroundColor=#ffffff;imageAspect=0;aspect=fixed;image=https://cdn0.iconfinder.com/data/icons/fatcow/32x32/tree.png;rounded=1;shadow=0;comic=0;strokeColor=#6881B3;strokeWidth=2;fillColor=#CCFFCC;fontColor=#0066CC;" parent="1" vertex="1">
          <mxGeometry x="-575" y="226" width="32" height="32" as="geometry" />
        </mxCell>
        <mxCell id="5c82df7aa0dc6260-65" value="" style="shape=image;html=1;verticalAlign=top;verticalLabelPosition=bottom;labelBackgroundColor=#ffffff;imageAspect=0;aspect=fixed;image=https://cdn0.iconfinder.com/data/icons/fatcow/32x32/tree.png;rounded=1;shadow=0;comic=0;strokeColor=#6881B3;strokeWidth=2;fillColor=#CCFFCC;fontColor=#0066CC;" parent="1" vertex="1">
          <mxGeometry x="-670" y="219" width="32" height="32" as="geometry" />
        </mxCell>
        <mxCell id="5c82df7aa0dc6260-66" value="" style="shape=image;html=1;verticalAlign=top;verticalLabelPosition=bottom;labelBackgroundColor=#ffffff;imageAspect=0;aspect=fixed;image=https://cdn0.iconfinder.com/data/icons/fatcow/32x32/tree.png;rounded=1;shadow=0;comic=0;strokeColor=#6881B3;strokeWidth=2;fillColor=#CCFFCC;fontColor=#0066CC;" parent="1" vertex="1">
          <mxGeometry x="-660" y="229" width="32" height="32" as="geometry" />
        </mxCell>
        <mxCell id="5c82df7aa0dc6260-67" value="" style="shape=image;html=1;verticalAlign=top;verticalLabelPosition=bottom;labelBackgroundColor=#ffffff;imageAspect=0;aspect=fixed;image=https://cdn0.iconfinder.com/data/icons/fatcow/32x32/tree.png;rounded=1;shadow=0;comic=0;strokeColor=#6881B3;strokeWidth=2;fillColor=#CCFFCC;fontColor=#0066CC;" parent="1" vertex="1">
          <mxGeometry x="-628" y="251" width="32" height="32" as="geometry" />
        </mxCell>
        <mxCell id="5c82df7aa0dc6260-68" value="" style="shape=image;html=1;verticalAlign=top;verticalLabelPosition=bottom;labelBackgroundColor=#ffffff;imageAspect=0;aspect=fixed;image=https://cdn0.iconfinder.com/data/icons/fatcow/32x32/tree.png;rounded=1;shadow=0;comic=0;strokeColor=#6881B3;strokeWidth=2;fillColor=#CCFFCC;fontColor=#0066CC;" parent="1" vertex="1">
          <mxGeometry x="-820" y="407" width="32" height="32" as="geometry" />
        </mxCell>
        <mxCell id="5c82df7aa0dc6260-69" value="" style="shape=image;html=1;verticalAlign=top;verticalLabelPosition=bottom;labelBackgroundColor=#ffffff;imageAspect=0;aspect=fixed;image=https://cdn0.iconfinder.com/data/icons/fatcow/32x32/tree.png;rounded=1;shadow=0;comic=0;strokeColor=#6881B3;strokeWidth=2;fillColor=#CCFFCC;fontColor=#0066CC;" parent="1" vertex="1">
          <mxGeometry x="-770" y="383" width="32" height="32" as="geometry" />
        </mxCell>
        <mxCell id="5c82df7aa0dc6260-70" value="" style="shape=image;html=1;verticalAlign=top;verticalLabelPosition=bottom;labelBackgroundColor=#ffffff;imageAspect=0;aspect=fixed;image=https://cdn0.iconfinder.com/data/icons/fatcow/32x32/tree.png;rounded=1;shadow=0;comic=0;strokeColor=#6881B3;strokeWidth=2;fillColor=#CCFFCC;fontColor=#0066CC;" parent="1" vertex="1">
          <mxGeometry x="-786" y="410" width="32" height="32" as="geometry" />
        </mxCell>
        <mxCell id="5c82df7aa0dc6260-71" value="" style="shape=image;html=1;verticalAlign=top;verticalLabelPosition=bottom;labelBackgroundColor=#ffffff;imageAspect=0;aspect=fixed;image=https://cdn0.iconfinder.com/data/icons/fatcow/32x32/tree.png;rounded=1;shadow=0;comic=0;strokeColor=#6881B3;strokeWidth=2;fillColor=#CCFFCC;fontColor=#0066CC;" parent="1" vertex="1">
          <mxGeometry x="-754" y="401" width="32" height="32" as="geometry" />
        </mxCell>
        <mxCell id="5c82df7aa0dc6260-72" value="" style="shape=image;html=1;verticalAlign=top;verticalLabelPosition=bottom;labelBackgroundColor=#ffffff;imageAspect=0;aspect=fixed;image=https://cdn0.iconfinder.com/data/icons/fatcow/32x32/tree.png;rounded=1;shadow=0;comic=0;strokeColor=#6881B3;strokeWidth=2;fillColor=#CCFFCC;fontColor=#0066CC;" parent="1" vertex="1">
          <mxGeometry x="-327" y="357" width="32" height="32" as="geometry" />
        </mxCell>
        <mxCell id="5c82df7aa0dc6260-73" value="" style="shape=image;html=1;verticalAlign=top;verticalLabelPosition=bottom;labelBackgroundColor=#ffffff;imageAspect=0;aspect=fixed;image=https://cdn0.iconfinder.com/data/icons/fatcow/32x32/tree.png;rounded=1;shadow=0;comic=0;strokeColor=#6881B3;strokeWidth=2;fillColor=#CCFFCC;fontColor=#0066CC;" parent="1" vertex="1">
          <mxGeometry x="-343" y="369" width="32" height="32" as="geometry" />
        </mxCell>
        <mxCell id="5c82df7aa0dc6260-74" value="" style="shape=image;html=1;verticalAlign=top;verticalLabelPosition=bottom;labelBackgroundColor=#ffffff;imageAspect=0;aspect=fixed;image=https://cdn0.iconfinder.com/data/icons/fatcow/32x32/tree.png;rounded=1;shadow=0;comic=0;strokeColor=#6881B3;strokeWidth=2;fillColor=#CCFFCC;fontColor=#0066CC;" parent="1" vertex="1">
          <mxGeometry x="-372" y="341" width="32" height="32" as="geometry" />
        </mxCell>
        <mxCell id="5c82df7aa0dc6260-75" value="" style="shape=image;html=1;verticalAlign=top;verticalLabelPosition=bottom;labelBackgroundColor=#ffffff;imageAspect=0;aspect=fixed;image=https://cdn0.iconfinder.com/data/icons/fatcow/32x32/tree.png;rounded=1;shadow=0;comic=0;strokeColor=#6881B3;strokeWidth=2;fillColor=#CCFFCC;fontColor=#0066CC;" parent="1" vertex="1">
          <mxGeometry x="-510" y="415" width="32" height="32" as="geometry" />
        </mxCell>
        <mxCell id="5c82df7aa0dc6260-76" value="" style="shape=image;html=1;verticalAlign=top;verticalLabelPosition=bottom;labelBackgroundColor=#ffffff;imageAspect=0;aspect=fixed;image=https://cdn0.iconfinder.com/data/icons/fatcow/32x32/tree.png;rounded=1;shadow=0;comic=0;strokeColor=#6881B3;strokeWidth=2;fillColor=#CCFFCC;fontColor=#0066CC;" parent="1" vertex="1">
          <mxGeometry x="-526" y="425" width="32" height="32" as="geometry" />
        </mxCell>
        <mxCell id="GZACVESqMo_zAuzx1Ram-3" value="" style="html=1;verticalLabelPosition=bottom;align=center;labelBackgroundColor=#ffffff;verticalAlign=top;strokeWidth=2;strokeColor=#0080F0;shadow=0;dashed=0;shape=mxgraph.ios7.icons.smartphone;" vertex="1" parent="1">
          <mxGeometry x="-420" y="507" width="18" height="30" as="geometry" />
        </mxCell>
        <mxCell id="GZACVESqMo_zAuzx1Ram-4" value="" style="html=1;verticalLabelPosition=bottom;align=center;labelBackgroundColor=#ffffff;verticalAlign=top;strokeWidth=2;strokeColor=#0080F0;shadow=0;dashed=0;shape=mxgraph.ios7.icons.smartphone;" vertex="1" parent="1">
          <mxGeometry x="-450" y="337" width="18" height="30" as="geometry" />
        </mxCell>
        <mxCell id="GZACVESqMo_zAuzx1Ram-5" value="" style="html=1;verticalLabelPosition=bottom;align=center;labelBackgroundColor=#ffffff;verticalAlign=top;strokeWidth=2;strokeColor=#0080F0;shadow=0;dashed=0;shape=mxgraph.ios7.icons.smartphone;" vertex="1" parent="1">
          <mxGeometry x="-596" y="517" width="18" height="30" as="geometry" />
        </mxCell>
        <mxCell id="GZACVESqMo_zAuzx1Ram-6" value="" style="html=1;verticalLabelPosition=bottom;align=center;labelBackgroundColor=#ffffff;verticalAlign=top;strokeWidth=2;strokeColor=#0080F0;shadow=0;dashed=0;shape=mxgraph.ios7.icons.smartphone;" vertex="1" parent="1">
          <mxGeometry x="-725" y="453" width="18" height="30" as="geometry" />
        </mxCell>
        <mxCell id="GZACVESqMo_zAuzx1Ram-7" value="" style="html=1;verticalLabelPosition=bottom;align=center;labelBackgroundColor=#ffffff;verticalAlign=top;strokeWidth=2;strokeColor=#0080F0;shadow=0;dashed=0;shape=mxgraph.ios7.icons.smartphone;" vertex="1" parent="1">
          <mxGeometry x="-755" y="283" width="18" height="30" as="geometry" />
        </mxCell>
        <mxCell id="GZACVESqMo_zAuzx1Ram-8" value="" style="html=1;verticalLabelPosition=bottom;align=center;labelBackgroundColor=#ffffff;verticalAlign=top;strokeWidth=2;strokeColor=#0080F0;shadow=0;dashed=0;shape=mxgraph.ios7.icons.smartphone;" vertex="1" parent="1">
          <mxGeometry x="-901" y="463" width="18" height="30" as="geometry" />
        </mxCell>
        <mxCell id="GZACVESqMo_zAuzx1Ram-9" value="" style="html=1;verticalLabelPosition=bottom;align=center;labelBackgroundColor=#ffffff;verticalAlign=top;strokeWidth=2;strokeColor=#0080F0;shadow=0;dashed=0;shape=mxgraph.ios7.icons.smartphone;" vertex="1" parent="1">
          <mxGeometry x="-700" y="147" width="18" height="30" as="geometry" />
        </mxCell>
        <mxCell id="GZACVESqMo_zAuzx1Ram-10" value="" style="html=1;verticalLabelPosition=bottom;align=center;labelBackgroundColor=#ffffff;verticalAlign=top;strokeWidth=2;strokeColor=#0080F0;shadow=0;dashed=0;shape=mxgraph.ios7.icons.smartphone;" vertex="1" parent="1">
          <mxGeometry x="-800" y="189" width="18" height="30" as="geometry" />
        </mxCell>
        <mxCell id="GZACVESqMo_zAuzx1Ram-11" value="" style="html=1;verticalLabelPosition=bottom;align=center;labelBackgroundColor=#ffffff;verticalAlign=top;strokeWidth=2;strokeColor=#0080F0;shadow=0;dashed=0;shape=mxgraph.ios7.icons.smartphone;" vertex="1" parent="1">
          <mxGeometry x="-220" y="410" width="20" height="30" as="geometry" />
        </mxCell>
        <mxCell id="GZACVESqMo_zAuzx1Ram-12" value="" style="html=1;verticalLabelPosition=bottom;align=center;labelBackgroundColor=#ffffff;verticalAlign=top;strokeWidth=2;strokeColor=#0080F0;shadow=0;dashed=0;shape=mxgraph.ios7.icons.smartphone;" vertex="1" parent="1">
          <mxGeometry x="-190" y="277" width="18" height="30" as="geometry" />
        </mxCell>
        <mxCell id="GZACVESqMo_zAuzx1Ram-13" value="" style="shape=image;html=1;verticalAlign=top;verticalLabelPosition=bottom;labelBackgroundColor=#ffffff;imageAspect=0;aspect=fixed;image=https://cdn2.iconfinder.com/data/icons/crystalproject/128x128/apps/daemons.png" vertex="1" parent="1">
          <mxGeometry x="-351" y="439" width="80" height="80" as="geometry" />
        </mxCell>
        <mxCell id="GZACVESqMo_zAuzx1Ram-14" value="" style="shape=image;html=1;verticalAlign=top;verticalLabelPosition=bottom;labelBackgroundColor=#ffffff;imageAspect=0;aspect=fixed;image=https://cdn2.iconfinder.com/data/icons/crystalproject/128x128/apps/daemons.png" vertex="1" parent="1">
          <mxGeometry x="-1010" y="382" width="80" height="80" as="geometry" />
        </mxCell>
        <mxCell id="GZACVESqMo_zAuzx1Ram-15" value="" style="shape=image;html=1;verticalAlign=top;verticalLabelPosition=bottom;labelBackgroundColor=#ffffff;imageAspect=0;aspect=fixed;image=https://cdn2.iconfinder.com/data/icons/crystalproject/128x128/apps/daemons.png" vertex="1" parent="1">
          <mxGeometry x="-623" y="129" width="80" height="80" as="geometry" />
        </mxCell>
        <mxCell id="GZACVESqMo_zAuzx1Ram-20" value="" style="shape=mxgraph.signs.transportation.car_4;html=1;pointerEvents=1;fillColor=#000000;strokeColor=none;verticalLabelPosition=bottom;verticalAlign=top;align=center;" vertex="1" parent="1">
          <mxGeometry x="-860" y="197" width="41" height="36" as="geometry" />
        </mxCell>
        <mxCell id="GZACVESqMo_zAuzx1Ram-21" value="" style="shape=mxgraph.signs.transportation.car_4;html=1;pointerEvents=1;fillColor=#000000;strokeColor=none;verticalLabelPosition=bottom;verticalAlign=top;align=center;" vertex="1" parent="1">
          <mxGeometry x="-823" y="307" width="41" height="36" as="geometry" />
        </mxCell>
        <mxCell id="GZACVESqMo_zAuzx1Ram-23" value="" style="shape=mxgraph.signs.transportation.car_4;html=1;pointerEvents=1;fillColor=#000000;strokeColor=none;verticalLabelPosition=bottom;verticalAlign=top;align=center;" vertex="1" parent="1">
          <mxGeometry x="-400" y="241" width="41" height="36" as="geometry" />
        </mxCell>
        <mxCell id="GZACVESqMo_zAuzx1Ram-31" value="" style="triangle;whiteSpace=wrap;html=1;" vertex="1" parent="1">
          <mxGeometry x="-190" y="77" width="60" height="80" as="geometry" />
        </mxCell>
        <mxCell id="GZACVESqMo_zAuzx1Ram-50" style="edgeStyle=orthogonalEdgeStyle;rounded=0;orthogonalLoop=1;jettySize=auto;html=1;entryX=0.042;entryY=0.516;entryDx=0;entryDy=0;entryPerimeter=0;fontSize=80;strokeWidth=4;strokeColor=#67AB9F;" edge="1" parent="1" source="GZACVESqMo_zAuzx1Ram-33" target="GZACVESqMo_zAuzx1Ram-47">
          <mxGeometry relative="1" as="geometry">
            <mxPoint x="534.4399999999996" y="341.172" as="targetPoint" />
          </mxGeometry>
        </mxCell>
        <mxCell id="GZACVESqMo_zAuzx1Ram-33" value="" style="shape=cylinder3;whiteSpace=wrap;html=1;boundedLbl=1;backgroundOutline=1;size=15;fillColor=#CCFFCC;" vertex="1" parent="1">
          <mxGeometry x="150" y="268" width="170" height="168" as="geometry" />
        </mxCell>
        <mxCell id="GZACVESqMo_zAuzx1Ram-35" value="" style="image;html=1;image=img/lib/clip_art/people/Suit_Man_Green_128x128.png" vertex="1" parent="1">
          <mxGeometry x="970" y="610" width="80" height="80" as="geometry" />
        </mxCell>
        <mxCell id="GZACVESqMo_zAuzx1Ram-36" value="" style="image;html=1;image=img/lib/clip_art/people/Suit_Man_Green_128x128.png" vertex="1" parent="1">
          <mxGeometry x="750" y="162" width="80" height="80" as="geometry" />
        </mxCell>
        <mxCell id="GZACVESqMo_zAuzx1Ram-37" value="" style="image;html=1;image=img/lib/clip_art/people/Suit_Man_128x128.png" vertex="1" parent="1">
          <mxGeometry x="330" y="443" width="80" height="80" as="geometry" />
        </mxCell>
        <mxCell id="GZACVESqMo_zAuzx1Ram-38" value="" style="image;html=1;image=img/lib/clip_art/people/Suit_Man_128x128.png" vertex="1" parent="1">
          <mxGeometry x="870" y="310" width="80" height="80" as="geometry" />
        </mxCell>
        <mxCell id="GZACVESqMo_zAuzx1Ram-39" value="" style="image;html=1;image=img/lib/clip_art/people/Suit_Man_Green_128x128.png" vertex="1" parent="1">
          <mxGeometry x="890" y="150" width="80" height="80" as="geometry" />
        </mxCell>
        <mxCell id="GZACVESqMo_zAuzx1Ram-40" value="" style="image;html=1;image=img/lib/clip_art/people/Suit_Man_Green_128x128.png" vertex="1" parent="1">
          <mxGeometry x="940" y="446" width="80" height="80" as="geometry" />
        </mxCell>
        <mxCell id="GZACVESqMo_zAuzx1Ram-41" value="" style="image;html=1;image=img/lib/clip_art/people/Suit_Woman_128x128.png" vertex="1" parent="1">
          <mxGeometry x="790" y="600" width="80" height="80" as="geometry" />
        </mxCell>
        <mxCell id="GZACVESqMo_zAuzx1Ram-42" value="" style="image;html=1;image=img/lib/clip_art/people/Nurse_Woman_Black_128x128.png" vertex="1" parent="1">
          <mxGeometry x="580" y="600" width="80" height="80" as="geometry" />
        </mxCell>
        <mxCell id="GZACVESqMo_zAuzx1Ram-43" value="" style="image;html=1;image=img/lib/clip_art/people/Nurse_Woman_Black_128x128.png" vertex="1" parent="1">
          <mxGeometry x="390" y="580" width="80" height="80" as="geometry" />
        </mxCell>
        <mxCell id="GZACVESqMo_zAuzx1Ram-44" value="" style="image;html=1;image=img/lib/clip_art/people/Doctor_Woman_Black_128x128.png" vertex="1" parent="1">
          <mxGeometry x="370" y="110" width="80" height="80" as="geometry" />
        </mxCell>
        <mxCell id="GZACVESqMo_zAuzx1Ram-45" value="" style="image;html=1;image=img/lib/clip_art/people/Doctor_Woman_Black_128x128.png" vertex="1" parent="1">
          <mxGeometry x="640" y="30" width="80" height="80" as="geometry" />
        </mxCell>
        <mxCell id="GZACVESqMo_zAuzx1Ram-47" value="W" style="verticalLabelPosition=bottom;html=1;verticalAlign=top;align=center;strokeColor=none;fillColor=#00BEF2;shape=mxgraph.azure.azure_website;pointerEvents=1;" vertex="1" parent="1">
          <mxGeometry x="540" y="240" width="220" height="216" as="geometry" />
        </mxCell>
        <mxCell id="GZACVESqMo_zAuzx1Ram-53" value="WT-Tool" style="text;strokeColor=none;fillColor=none;html=1;fontSize=70;fontStyle=1;verticalAlign=middle;align=center;fontColor=#00BEF2;" vertex="1" parent="1">
          <mxGeometry x="600" y="477" width="100" height="40" as="geometry" />
        </mxCell>
      </root>
    </mxGraphModel>
  </diagram>
</mxfile>
